PathFileType	4	(x/y/z)	S08_M20_T01
DataRate	CameraRate	NumFrames	NumMarkers	Units	OrigDataRate	OrigDataStartFrame	OrigNumFrames
240	240	4	51	mm	240	442	504
Frame#	Time	Sternum			R.Acromium			L.Acromium			Top.Head			R.ASIS			L.ASIS			R.PSIS			L.PSIS			R.Great.Tro			L.Great.Tro			R.Iliac.Crest			L.Iliac.Crest			V.Sacral			R.Thigh.Upper.Post			R.Thigh.Lower.Ant			R.Thigh.Lower.Post			R.Thigh.Upper.Ant			R.Knee.Lat			R.Knee.Med			R.Shank.Upper.Post			R.Shank.Lower.Ant			R.Shank.Lower.Post			R.Shank.Upper.Ant			R.Ankle.Lat			R.Ankle.Med			R.Heel.Upper			R.Heel.Med			R.Heel.Lat			R.Toe.Lat			R.Toe.Med			R.Toe.Tip			L.Thigh.Upper.Post			L.Thigh.Lower.Ant			L.Thigh.Lower.Post			L.Thigh.Upper.Ant			L.Knee.Lat			L.Knee.Med			L.Shank.Upper.Post			L.Shank.Lower.Ant			L.Shank.Lower.Post			L.Shank.Upper.Ant			L.Ankle.Lat			L.Ankle.Med			L.Heel.Upper			L.Heel.Med			L.Heel.Lat			L.Toe.Lat			L.Toe.Med			L.Toe.Tip			Cervical.Spine			Back			
		X1	Y1	Z1	X2	Y2	Z2	X3	Y3	Z3	X4	Y4	Z4	X5	Y5	Z5	X6	Y6	Z6	X7	Y7	Z7	X8	Y8	Z8	X9	Y9	Z9	X10	Y10	Z10	X11	Y11	Z11	X12	Y12	Z12	X13	Y13	Z13	X14	Y14	Z14	X15	Y15	Z15	X16	Y16	Z16	X17	Y17	Z17	X18	Y18	Z18	X19	Y19	Z19	X20	Y20	Z20	X21	Y21	Z21	X22	Y22	Z22	X23	Y23	Z23	X24	Y24	Z24	X25	Y25	Z25	X26	Y26	Z26	X27	Y27	Z27	X28	Y28	Z28	X29	Y29	Z29	X30	Y30	Z30	X31	Y31	Z31	X32	Y32	Z32	X33	Y33	Z33	X34	Y34	Z34	X35	Y35	Z35	X36	Y36	Z36	X37	Y37	Z37	X38	Y38	Z38	X39	Y39	Z39	X40	Y40	Z40	X41	Y41	Z41	X42	Y42	Z42	X43	Y43	Z43	X44	Y44	Z44	X45	Y45	Z45	X46	Y46	Z46	X47	Y47	Z47	X48	Y48	Z48	X49	Y49	Z49	X50	Y50	Z50	X51	Y51	Z51	

442	1.8375	816.29	1208.2	275.5	698.25	1441.4	451.76	697.06	1478.1	119.6	720.78	1763.8	304.41	809.81	999.57	383.38	797.93	998.92	148.51	605.18	1019.5	319.6	604.72	1027	226.31	756.84	888.69	457.46	693.78	898.76	86.84	713.13	1063.5	434.93	700.6	1080.5	122.72	588.07	982.81	270.84	817.92	692.64	446.62	926.58	634.34	409.6	859.42	613.87	426.52	889.65	720.2	429.91	939.67	539.51	405.57	907.02	524.85	280.16	960.53	349.45	415.9	1043.5	320.56	392.79	994.51	279.98	407.8	1009.5	390.37	402.54	1076	126.67	373.16	1093.5	158.6	293.51	1055.7	70.803	320.33	1080.4	57.227	291.78	1072.6	50.996	353.28	NaN	NaN	NaN	1233.9	160.83	288.27	1276.4	208.33	338.74	629.06	707.63	104.22	686.66	599.81	137.63	620.86	617.25	128.3	695.27	685.24	110.48	604.81	513.14	154.44	606.71	517.21	279.83	494.54	352.29	161.15	536.57	252.08	189.43	472.31	283.58	181.95	553.3	324.24	169.7	448.68	110.31	208.78	472.18	114.77	293.99	390.06	85.763	260.49	401.66	50.453	290.01	394.69	58.537	226.26	568.29	39.111	188.07	590.72	37.406	303.05	654.78	49.18	252.62	631.64	1502.9	277.97	582.97	1219.9	280.15
443	1.8417	821.81	1207.4	275.59	703.71	1440.5	451.96	702.59	1477.3	119.82	726.07	1762.9	304.77	815.5	998.76	383.3	803.01	998.01	148.44	610.7	1018.7	320.11	610.02	1026.2	226.82	762.77	887.94	457.61	698.35	898.11	87.07	718.94	1062.7	435.13	705.69	1079.6	122.89	593.49	982.03	271.4	823.44	691.81	446.84	931.93	633.3	409.53	864.77	612.95	426.65	895.21	719.23	429.93	944.91	538.6	405.56	912.07	523.92	280.15	967.32	348.62	415.39	1050.6	320.58	392.28	1001.9	279.51	407.16	1015.9	390.06	402.26	1085.2	126.99	372.04	1102.3	159.39	292.51	1065.5	71.038	319.02	1090.3	57.841	290.4	1082.5	51.277	351.86	NaN	NaN	NaN	1242.7	163.04	287.31	1284.8	210.75	338.09	632.78	707.46	104.5	689.96	599.31	137.51	624.22	617.1	128.47	698.9	684.72	110.43	607.69	513.02	154.51	610.07	516.9	279.93	496.49	352.85	161.28	537.91	252.33	189.38	473.84	284.27	182.03	555.1	324.4	169.71	449.19	111.03	208.74	472.78	115.39	293.95	390.47	86.66	260.47	401.89	51.351	290.01	394.95	59.383	226.26	568.38	39.078	188.06	590.85	37.467	302.99	654.95	48.916	252.57	637.14	1502.1	278.19	588.46	1219.1	280.29
444	1.8458	827.34	1206.5	275.69	709.2	1439.5	452.17	708.14	1476.5	120.04	731.36	1762	305.13	821.21	997.94	383.22	808.11	997.12	148.38	616.25	1017.9	320.65	615.35	1025.3	227.36	768.73	887.18	457.76	702.95	897.46	87.319	724.8	1062	435.35	710.79	1078.7	123.09	598.94	981.25	271.98	829.06	691	447.06	937.38	632.32	409.43	870.23	612.07	426.77	900.85	718.3	429.95	950.24	537.73	405.53	917.24	523.05	280.11	973.99	347.8	414.88	1057.5	320.51	391.78	1009.2	279.01	406.52	1022.3	389.7	401.98	1093.8	127.21	370.95	1110.8	160.03	291.54	1074.7	71.187	317.74	1099.7	58.331	289.06	1091.9	51.46	350.48	NaN	NaN	NaN	1251.1	164.94	286.39	1292.8	212.82	337.46	636.53	707.28	104.81	693.32	598.82	137.38	627.63	616.94	128.65	702.59	684.21	110.38	610.65	512.89	154.58	613.5	516.59	280.04	498.53	353.42	161.39	539.3	252.6	189.33	475.44	284.98	182.09	556.96	324.57	169.71	449.72	111.79	208.69	473.4	116.04	293.9	390.92	87.618	260.43	402.14	52.313	290	395.23	60.285	226.23	568.49	39.046	188.04	590.99	37.536	302.94	655.13	48.645	252.53	642.66	1501.3	278.42	593.98	1218.2	280.45
445	1.85	832.9	1205.7	275.79	714.72	1438.6	452.39	713.71	1475.8	120.26	736.66	1761.2	305.51	826.95	997.12	383.14	813.24	996.23	148.31	621.84	1017.1	321.21	620.71	1024.5	227.92	774.74	886.43	457.94	707.57	896.81	87.586	730.69	1061.2	435.58	715.91	1077.9	123.31	604.41	980.48	272.59	834.77	690.22	447.28	942.94	631.4	409.32	875.82	611.23	426.88	906.56	717.42	429.94	955.68	536.89	405.47	922.53	522.25	280.05	980.54	346.99	414.34	1064.3	320.35	391.29	1016.2	278.5	405.88	1028.5	389.29	401.68	1102.1	127.3	369.89	1118.8	160.5	290.59	1083.5	71.233	316.51	1108.5	58.678	287.78	1100.8	51.532	349.17	NaN	NaN	NaN	1259	166.51	285.5	1300.4	214.52	336.84	640.32	707.09	105.16	696.73	598.34	137.25	631.11	616.79	128.84	706.32	683.7	110.34	613.69	512.76	154.65	617.02	516.27	280.15	500.64	354.01	161.5	540.75	252.89	189.27	477.1	285.72	182.12	558.89	324.76	169.71	450.28	112.59	208.61	474.04	116.73	293.84	391.39	88.639	260.36	402.4	53.339	289.97	395.53	61.246	226.18	568.6	39.015	188.02	591.12	37.612	302.88	655.31	48.367	252.48	648.2	1500.5	278.65	599.53	1217.4	280.62
